HIERARCHY
ROOT Hips
{
	OFFSET -3.958830 18.904000 13.208200
	CHANNELS 6 Xposition Yposition Zposition Zrotation Yrotation Xrotation 
	JOINT LHipJoint
	{
		OFFSET 0.000000 0.000000 0.000000
		CHANNELS 3 Zrotation Yrotation Xrotation
		JOINT LeftUpLeg
		{
			OFFSET 1.800000 -1.400000 0.085000
			CHANNELS 3 Zrotation Yrotation Xrotation
			JOINT LeftLeg
			{
				OFFSET 2.215000 -6.000000 0.000000
				CHANNELS 3 Zrotation Yrotation Xrotation
				JOINT LeftFoot
				{
					OFFSET 2.500000 -6.900000 0.000000
					CHANNELS 3 Zrotation Yrotation Xrotation
					JOINT LeftToeBase
					{
						OFFSET 0.200000 -0.500000 1.950000
						CHANNELS 3 Zrotation Yrotation Xrotation
						End Site
						{
							OFFSET 0.000000 0.000000 0.000000
						}
					}
				}
			}
		}
	}
	JOINT RHipJoint
	{
		OFFSET 0.000000 0.000000 0.000000
		CHANNELS 3 Zrotation Yrotation Xrotation
		JOINT RightUpLeg
		{
			OFFSET -1.800000 -1.400000 0.085000
			CHANNELS 3 Zrotation Yrotation Xrotation
			JOINT RightLeg
			{
				OFFSET -2.215000 -6.000000 0.000000
				CHANNELS 3 Zrotation Yrotation Xrotation
				JOINT RightFoot
				{
					OFFSET -2.500000 -6.900000 0.000000
					CHANNELS 3 Zrotation Yrotation Xrotation
					JOINT RightToeBase
					{
						OFFSET -0.200000 -0.500000 1.950000
						CHANNELS 3 Zrotation Yrotation Xrotation
						End Site
						{
							OFFSET 0.000000 0.000000 0.000000
						}
					}
				}
			}
		}
	}
	JOINT LowerBack
	{
		OFFSET 0.000000 0.000000 0.000000
		CHANNELS 3 Zrotation Yrotation Xrotation
		JOINT Spine
		{
			OFFSET -0.087000 1.940000 -0.288900
			CHANNELS 3 Zrotation Yrotation Xrotation
			JOINT Spine1
			{
				OFFSET 0.000000 1.950000 0.060000
				CHANNELS 3 Zrotation Yrotation Xrotation
				JOINT Neck
				{
					OFFSET 0.000000 0.000000 0.000000
					CHANNELS 3 Zrotation Yrotation Xrotation
					JOINT Neck1
					{
						OFFSET 0.000000 1.600000 0.340000
						CHANNELS 3 Zrotation Yrotation Xrotation
						JOINT Head
						{
							OFFSET 0.000000 1.667000 -0.240000
							CHANNELS 3 Zrotation Yrotation Xrotation
							End Site
							{
								OFFSET 0.000000 0.000000 0.000000
							}
						}
					}
				}
				JOINT LeftShoulder
				{
					OFFSET 0.000000 0.000000 0.000000
					CHANNELS 3 Zrotation Yrotation Xrotation
					JOINT LeftArm
					{
						OFFSET 2.700000 1.550000 -0.730000
						CHANNELS 3 Zrotation Yrotation Xrotation
						JOINT LeftForeArm
						{
							OFFSET 5.450000 0.000000 0.000000
							CHANNELS 3 Zrotation Yrotation Xrotation
							JOINT LeftHand
							{
								OFFSET 3.450000 0.000000 0.000000
								CHANNELS 3 Zrotation Yrotation Xrotation
								JOINT LeftHandIndex1
								{
									OFFSET 0.750000 0.000000 0.000000
									CHANNELS 3 Zrotation Yrotation Xrotation
									End Site
									{
										OFFSET 0.000000 0.000000 0.000000
									}
								}
							}
						}
					}
				}
				JOINT RightShoulder
				{
					OFFSET 0.000000 0.000000 0.000000
					CHANNELS 3 Zrotation Yrotation Xrotation
					JOINT RightArm
					{
						OFFSET -2.700000 1.550000 -0.730000
						CHANNELS 3 Zrotation Yrotation Xrotation
						JOINT RightForeArm
						{
							OFFSET -5.450000 0.000000 0.000000
							CHANNELS 3 Zrotation Yrotation Xrotation
							JOINT RightHand
							{
								OFFSET -3.450000 0.000000 0.000000
								CHANNELS 3 Zrotation Yrotation Xrotation
								JOINT RightHandIndex1
								{
									OFFSET -0.750000 0.000000 0.000000
									CHANNELS 3 Zrotation Yrotation Xrotation
									End Site
									{
										OFFSET 0.000000 0.000000 0.000000
									}
								}
							}
						}
					}
				}
			}
		}
	}
}
MOTION
Frames: 8
Frame Time: 0.016667
0.113200 16.045670 -1.223200 -2.741191 -0.670702 -3.093022 -15.428589 11.604326 4.825540 20.107499 -4.570461 -22.868697 -34.220767 25.242933 37.945716 1.032903 12.490847 0.709454 0.360050 -0.309700 0.225370 18.217559 -8.620696 3.408115 -18.305217 6.424056 -22.360730 33.090404 -24.058780 40.698413 -1.929682 -9.981814 1.179419 -0.193700 0.678390 0.461280 -3.185962 -3.024453 -9.300345 9.694394 -2.992994 27.956971 -5.136739 0.975685 -2.230308 3.055045 -4.304034 -11.424427 -9.501799 2.324875 30.587807 -1.806500 -0.019040 -15.657820 -15.236698 -9.576903 3.490540 23.833240 13.598923 2.828852 7.494249 1.981687 -1.616388 -3.953202 2.603579 1.064960 0.204930 -0.049570 0.414820 9.415688 13.962441 7.952100 -24.019100 -15.842742 0.734398 -6.266302 4.149851 0.119631 1.894118 -1.283356 -0.434100 0.472600 0.144150 -0.270050 
0.113070 15.947610 -1.231320 -2.749887 -0.701730 -3.160117 -15.470450 11.369942 4.994079 21.689752 -4.461838 -23.629711 -36.701655 27.005109 38.325723 1.139672 12.913764 0.582996 0.365340 -0.316100 0.241300 18.231199 -8.367182 3.504150 -19.713550 6.561908 -23.398492 35.145914 -25.779829 41.572325 -2.054018 -10.391669 1.062267 -0.190870 0.666170 0.458550 -3.155287 -3.077102 -9.442649 9.565852 -3.108876 28.437084 -5.108686 0.920970 -2.050216 3.113573 -4.258880 -11.693235 -9.479772 2.469530 30.733506 -1.993640 0.197440 -16.033460 -15.152093 -9.401971 3.572040 22.878638 13.504282 2.734005 7.759893 1.874799 -1.602520 -3.970542 2.574681 1.086710 0.197460 -0.044940 0.407740 9.243190 13.726980 8.318545 -22.465377 -15.421482 0.480846 -7.230153 4.202296 0.162003 1.908518 -1.244772 -0.445560 0.477590 0.148670 -0.288470 
0.112020 15.845010 -1.238280 -2.775300 -0.723012 -3.100867 -15.516282 11.130028 5.161707 23.320741 -4.300746 -24.506846 -39.201686 28.792381 38.617597 1.235138 13.302027 0.479608 0.367430 -0.319410 0.257300 18.245413 -8.109232 3.602709 -21.083294 6.641511 -24.544041 37.235643 -27.532715 42.322471 -2.172354 -10.777302 0.951258 -0.180800 0.671380 0.453840 -3.119832 -3.126081 -9.574995 9.433489 -3.201058 28.764362 -4.997497 0.854876 -1.849417 3.168080 -4.249837 -11.825301 -9.400532 2.532636 30.423567 -2.395320 0.390600 -16.319870 -15.159539 -9.147252 3.608639 21.785313 13.219729 2.616264 8.143208 1.976845 -1.593620 -4.000099 2.535144 1.100380 0.200140 -0.044630 0.404700 9.161327 13.460812 8.524229 -21.206307 -14.823321 0.248056 -7.971130 4.062373 0.160513 1.919020 -1.214972 -0.465410 0.498160 0.152190 -0.299810 
0.109580 15.744640 -1.245750 -2.782215 -0.723247 -3.222747 -15.561895 10.928089 5.319658 24.945178 -4.103107 -25.168837 -41.676249 30.541159 38.800327 1.309613 13.635302 0.392940 0.362550 -0.336830 0.274390 18.252250 -7.872202 3.693335 -22.386293 6.661755 -25.453688 39.262116 -29.271468 42.983797 -2.282266 -11.115237 0.861899 -0.177240 0.673790 0.438450 -3.073862 -3.201962 -9.706112 9.218772 -3.283578 29.431893 -4.898347 0.837159 -1.954692 3.231672 -4.220875 -12.041384 -9.401488 2.562230 30.528753 -2.557010 0.449200 -16.769210 -15.206599 -8.959530 3.649006 20.690718 12.804469 2.467509 8.536553 2.137775 -1.591434 -4.028758 2.471548 1.128620 0.194430 -0.045280 0.396040 9.119622 13.271517 8.844671 -19.773090 -14.294270 -0.073114 -9.026278 3.500227 0.174036 1.935991 -1.162816 -0.496270 0.528760 0.162380 -0.319270 
0.108910 15.644060 -1.251150 -2.904468 -0.711499 -3.414379 -15.604669 10.747423 5.470359 26.689768 -3.797889 -25.689136 -44.135118 32.272960 38.852594 1.388432 13.892852 0.324424 0.366680 -0.335670 0.295910 18.259027 -7.652847 3.773403 -23.583437 6.640304 -26.191402 41.295612 -30.959106 43.461989 -2.384660 -11.400642 0.786363 -0.170530 0.659920 0.424970 -3.032694 -3.280500 -9.829290 9.171098 -3.432229 30.147775 -4.787273 0.805714 -2.129779 3.293841 -4.208099 -12.206687 -9.454421 2.643135 30.778375 -2.726840 0.577410 -17.190360 -15.367667 -8.795978 3.666108 19.708250 12.622580 2.362884 8.895696 2.068338 -1.564662 -4.037911 2.434895 1.143910 0.182600 -0.037970 0.385540 9.181882 13.125532 9.097995 -18.478805 -13.649877 -0.403789 -10.232318 2.872704 0.190746 1.963161 -1.127851 -0.508380 0.544060 0.162480 -0.333560 
0.108700 15.543580 -1.257560 -2.964167 -0.664417 -3.658843 -15.643123 10.583792 5.599011 28.329237 -3.486840 -26.049494 -46.614383 33.912382 38.733112 1.461637 14.074939 0.276698 0.377980 -0.318310 0.316000 18.266412 -7.452686 3.854965 -24.903332 6.524481 -26.855693 43.416582 -32.678760 43.805158 -2.482555 -11.657661 0.712852 -0.158090 0.641800 0.414590 -2.997154 -3.351555 -9.938765 9.083129 -3.572542 30.932897 -4.716752 0.760328 -2.399821 3.336268 -4.223692 -12.308773 -9.545828 2.693062 30.984464 -2.803300 0.616020 -17.546550 -15.483639 -8.654052 3.602478 18.952703 12.252271 2.277583 8.420700 1.870697 -1.587397 -4.029977 2.416846 1.149310 0.168590 -0.026760 0.377140 9.235946 13.018270 9.315031 -17.307423 -12.915412 -0.738007 -11.208353 1.880209 0.193978 1.999772 -1.105781 -0.509070 0.551650 0.156910 -0.339600 
0.108650 15.441780 -1.262310 -3.006744 -0.607097 -3.889819 -15.680918 10.436783 5.716822 29.914228 -3.136986 -26.402808 -49.023536 35.550478 38.612486 1.511819 14.228352 0.242258 0.395290 -0.305750 0.336980 18.272723 -7.261544 3.936901 -26.318456 6.353385 -27.463715 45.665497 -34.431947 43.966278 -2.577420 -11.877635 0.664398 -0.146470 0.632030 0.406580 -2.960423 -3.433426 -10.044105 9.006060 -3.705444 31.634307 -4.622301 0.708620 -2.610011 3.391558 -4.337130 -12.461710 -9.859459 2.828251 31.349474 -2.815230 0.608640 -18.049550 -15.484764 -8.461613 3.629212 17.859490 11.961393 2.157799 8.535369 1.930886 -1.590482 -4.032687 2.379291 1.173190 0.156800 -0.016040 0.378790 9.163343 12.966142 9.500358 -16.232613 -12.185914 -1.060403 -11.802496 1.029372 0.209993 2.017242 -1.079356 -0.519590 0.568970 0.150240 -0.350780 
0.107210 15.339090 -1.266030 -3.026805 -0.548162 -4.113164 -15.718701 10.302453 5.826623 31.473730 -2.748842 -26.755249 -51.394572 37.248374 38.525574 1.573754 14.329244 0.218934 0.421110 -0.272990 0.360400 18.277333 -7.083856 4.015357 -27.740105 6.130639 -28.015364 48.032655 -36.163790 43.935349 -2.665089 -12.046040 0.625441 -0.132030 0.607210 0.400510 -2.920696 -3.511304 -10.144482 8.844770 -3.780823 32.288002 -4.442332 0.665814 -2.875632 3.415202 -4.448983 -12.544480 -10.178964 3.006590 31.791010 -2.690780 0.646870 -18.621390 -15.592201 -8.325350 3.665698 16.997704 11.761227 2.017078 8.862273 2.269601 -1.574617 -4.026475 2.361307 1.184310 0.137170 0.003950 0.379060 9.261836 12.985020 9.562465 -15.714910 -11.583262 -1.229830 -11.712682 0.417913 0.206453 2.037278 -1.062443 -0.510610 0.571520 0.133690 -0.354020 
